<svg xmlns="http://www.w3.org/2000/svg" width="20" height="20" viewBox="0 0 20 20">
  <path fill="#111111" d="M10 1.5c-2 0-3.6 1.6-3.6 3.7v3.2c0 1.7-.8 2.8-1.6 3.7-.8.9-1.6 1.8-1.6 3.3 0 2 1.6 3.6 3.6 3.6.9 0 1.8-.3 2.4-1 .6.7 1.5 1 2.4 1 2 0 3.6-1.6 3.6-3.6 0-1.5-.8-2.4-1.6-3.3-.8-.9-1.6-2-1.6-3.7V5.2C13.6 3.1 12 1.5 10 1.5z"/>
  <ellipse cx="8.4" cy="5.4" rx="0.9" ry="1.1" fill="#ffffff"/>
  <ellipse cx="11.6" cy="5.4" rx="0.9" ry="1.1" fill="#ffffff"/>
  <path fill="#f59e0b" d="M10 7.2l-1.1 1.2h2.2L10 7.2z"/>
</svg>
